<?xml version="1.0" standalone="no"?>
<!DOCTYPE svg PUBLIC "-//W3C//DTD SVG 20010904//EN"
 "http://www.w3.org/TR/2001/REC-SVG-20010904/DTD/svg10.dtd">
<svg version="1.0" xmlns="http://www.w3.org/2000/svg"
 width="512.000000pt" height="512.000000pt" viewBox="0 0 512.000000 512.000000"
 preserveAspectRatio="xMidYMid meet">
<metadata>
Created by potrace 1.11, written by Peter Selinger 2001-2013
</metadata>
<g transform="translate(0.000000,512.000000) scale(0.100000,-0.100000)"
fill="#000000" stroke="none">
<path d="M2450 4809 c-816 -53 -1540 -550 -1893 -1297 -63 -135 -139 -365
-166 -502 -36 -188 -40 -254 -31 -465 10 -220 26 -303 82 -407 34 -64 120
-151 188 -190 142 -83 509 -110 830 -63 393 59 827 214 1175 420 l78 46 41
-19 c23 -11 62 -27 88 -37 l47 -17 -19 -47 c-10 -25 -54 -134 -98 -241 l-80
-195 28 -12 28 -12 -70 -173 c-39 -95 -126 -308 -194 -473 l-122 -300 30 -13
c17 -7 34 -10 38 -5 4 4 89 213 190 463 101 250 187 459 191 464 8 9 79 -14
79 -26 0 -4 -52 -134 -115 -289 -63 -155 -115 -285 -115 -289 0 -4 6 -10 14
-13 10 -4 45 73 132 289 95 235 121 293 134 288 38 -16 44 -8 126 196 46 113
90 219 98 237 l15 32 81 -34 80 -34 13 32 c91 223 120 298 116 300 -6 5 -603
247 -609 247 -3 0 -23 -45 -45 -99 l-40 -99 -90 -54 c-342 -205 -750 -362
-1124 -432 -331 -62 -714 -62 -903 2 -59 19 -55 13 -88 177 -44 226 -50 404
-20 635 41 310 125 560 270 803 98 165 182 271 334 422 360 358 787 553 1304
596 339 29 720 -46 1047 -206 187 -91 395 -235 508 -352 l38 -40 -40 -90 c-72
-165 -142 -295 -154 -290 -7 3 -57 26 -112 50 -153 68 -291 117 -372 133 -176
33 -430 -33 -606 -160 -82 -58 -184 -165 -240 -251 -41 -64 -81 -145 -75 -150
6 -6 1781 -725 1788 -725 13 0 50 144 61 235 19 167 -23 372 -107 522 -49 89
-141 201 -202 248 -29 22 -50 44 -48 50 3 5 29 64 59 130 30 66 72 167 92 225
43 123 107 351 100 358 -2 2 -46 7 -96 10 -90 5 -94 6 -148 47 -270 204 -614
354 -956 415 -94 17 -369 42 -415 38 -8 0 -67 -4 -130 -9z m473 -2182 c5 -13
-86 -254 -103 -271 -7 -7 -14 -6 -25 4 -12 13 -8 30 30 128 25 62 49 121 55
132 12 22 35 26 43 7z m37 -421 c0 -25 -140 -374 -155 -386 -16 -13 -35 -6
-35 14 0 9 101 266 147 374 7 17 43 15 43 -2z"/>
<path d="M2415 4251 c-48 -22 -79 -54 -100 -103 -22 -53 -19 -97 11 -155 21
-43 33 -55 69 -69 131 -50 265 41 265 179 0 70 -25 113 -84 142 -59 30 -106
31 -161 6z"/>
<path d="M1685 3976 c-151 -48 -253 -172 -271 -329 -11 -91 36 -226 98 -285
13 -11 50 -33 83 -49 52 -24 73 -28 151 -28 84 0 95 2 166 38 86 42 137 93
174 173 54 114 52 236 -4 339 -65 119 -255 186 -397 141z"/>
<path d="M2750 3122 c0 -18 42 -157 55 -182 13 -25 12 -29 -6 -46 -26 -24 -93
-134 -85 -141 3 -3 196 -84 428 -179 233 -95 431 -178 441 -184 10 -6 40 -19
68 -30 l50 -20 10 27 c5 14 15 59 21 98 l11 72 43 16 c46 17 159 85 152 92 -3
4 -960 394 -1140 466 -27 10 -48 15 -48 11z"/>
<path d="M4802 2881 c-13 -23 -48 -74 -78 -114 l-54 -72 -4 -170 c-9 -328 -70
-581 -211 -870 -108 -224 -232 -392 -426 -580 -340 -330 -716 -505 -1224 -571
-423 -54 -915 60 -1300 301 -169 107 -375 284 -476 410 -24 30 -49 55 -55 55
-25 0 -213 101 -278 150 l-69 51 33 -58 c155 -277 459 -587 750 -767 367 -228
759 -338 1195 -338 675 1 1294 292 1733 817 363 433 554 1025 512 1582 -6 82
-14 163 -18 181 l-7 34 -23 -41z"/>
<path d="M2148 1936 c-88 -29 -111 -43 -254 -151 -176 -131 -153 -123 -386
-150 l-147 -18 60 -78 c63 -83 70 -99 42 -99 -53 -1 -46 -16 67 -166 61 -82
115 -150 119 -152 4 -1 13 9 21 23 7 14 16 25 19 25 4 0 33 -36 66 -79 33 -44
63 -77 66 -73 4 4 35 72 69 152 34 79 67 154 73 167 7 12 81 74 166 137 145
109 158 121 218 211 35 53 61 100 58 106 -4 5 -2 15 3 22 16 19 -85 150 -110
144 -10 -3 -21 -1 -24 4 -8 13 -18 11 -126 -25z m22 -56 c0 -13 -50 -57 -162
-143 -201 -153 -204 -155 -219 -140 -9 9 -9 16 2 29 24 29 350 274 365 274 8
0 14 -9 14 -20z"/>
</g>
</svg>
