<?xml version="1.0" encoding="utf-8"?>
<!-- Generator: Adobe Illustrator 16.0.0, SVG Export Plug-In . SVG Version: 6.00 Build 0)  -->
<!DOCTYPE svg PUBLIC "-//W3C//DTD SVG 1.1//EN" "http://www.w3.org/Graphics/SVG/1.1/DTD/svg11.dtd">
<svg version="1.1" id="Layer_1" xmlns="http://www.w3.org/2000/svg" xmlns:xlink="http://www.w3.org/1999/xlink" x="0px" y="0px"
	 width="182.898px" height="43.309px" viewBox="0 0 182.898 43.309" enable-background="new 0 0 182.898 43.309"
	 xml:space="preserve">
<g id="Logo">
	<g id="Badge">
		<path id="BackShadow" fill="#18214B" d="M37.273,5.284c0,0-1.391-0.286-2.52,0.08c-1.128,0.368,1.377,2.287,1.377,2.287
			S37.273,5.468,37.273,5.284z"/>
		<g id="Icon">
			<path id="Space" fill="#0681A8" d="M22.222,2.276c-10.685,0-19.377,8.693-19.377,19.377c0,10.686,8.693,19.378,19.377,19.378
				c10.685,0,19.378-8.692,19.378-19.378C41.6,10.97,32.907,2.276,22.222,2.276z"/>
			<path id="Outline" fill="#1E2654" d="M22.222,0.513c-11.657,0-21.141,9.483-21.141,21.141c0,11.658,9.484,21.143,21.141,21.143
				s21.141-9.484,21.141-21.143C43.363,9.996,33.879,0.513,22.222,0.513z M22.222,41.031c-10.685,0-19.377-8.692-19.377-19.378
				c0-10.684,8.693-19.377,19.377-19.377c10.685,0,19.378,8.693,19.378,19.377C41.6,32.339,32.907,41.031,22.222,41.031z"/>
			<path id="Planet" fill="#729EBD" d="M24.964,35.854c0-9.17-7.46-16.63-16.63-16.63c-1.858,0-3.679,0.319-5.424,0.923
				c-0.039,0.498-0.065,1-0.065,1.507c0,10.686,8.693,19.378,19.377,19.378c0.655,0,1.298-0.045,1.936-0.109
				C24.686,39.279,24.964,37.578,24.964,35.854z"/>
			<g id="PlanetOutline" opacity="0.4">
				<path fill="#1E2654" d="M8.333,17.87c-2.046,0-4.01,0.347-5.843,0.977c-0.038,0.32-0.067,0.643-0.09,0.968
					c1.849-0.687,3.848-1.062,5.933-1.062c9.431,0,17.103,7.672,17.103,17.102c0,1.94-0.329,3.804-0.927,5.544
					c0.327-0.031,0.651-0.07,0.973-0.116c0.542-1.712,0.835-3.535,0.835-5.428C26.318,25.922,18.266,17.87,8.333,17.87z"/>
				<path fill="#1E2654" d="M23.825,41.936l0.238-0.692c0.598-1.74,0.901-3.554,0.901-5.39c0-9.17-7.46-16.63-16.63-16.63
					c-1.98,0-3.921,0.349-5.768,1.033l-0.686,0.255l0.05-0.729c0.023-0.333,0.053-0.663,0.091-0.991l0.035-0.295l0.281-0.097
					c1.935-0.665,3.953-1.002,5.997-1.002c10.177,0,18.457,8.279,18.457,18.456c0,1.897-0.289,3.771-0.857,5.57l-0.09,0.284
					l-0.294,0.041c-0.33,0.047-0.661,0.087-0.995,0.118L23.825,41.936z"/>
			</g>
		</g>
		<g id="WhiteBand">
			<path fill="#18214B" d="M2.432,26.118c1.631,2.198,13.447,2.558,23.556-5.139c4.517-3.438,7.974-7.599,10.866-15.757
				c7.636,5.601-7.033,20.314-10.294,22.271c-3.261,1.957-23.557,3.761-24.644,0.282C0.829,24.296,1.709,23.121,2.432,26.118z"/>
			<path fill="#FFFFFF" d="M2.158,25.663"/>
			<path fill="#FFFFFF" d="M2.432,26.118"/>
			<path fill="#FFFFFF" d="M1.104,20.664c-0.005,2.6,0.005,5.597,3.021,7.002c1.405,0.47,2.33,0.547,3.606,0.588
				c1.28,0.044,2.591-0.046,3.877-0.234c2.577-0.379,5.054-1.132,7.28-2.074c1.114-0.472,2.171-0.991,3.158-1.545
				c0.249-0.137,0.49-0.277,0.729-0.419l0.354-0.213l0.323-0.203l0.374-0.236l0.192-0.123c-0.054,0.031-0.003,0-0.009,0.004
				l0.021-0.015l0.043-0.028l0.084-0.06c0.225-0.151,0.448-0.303,0.668-0.452c1.747-1.226,3.245-2.479,4.477-3.66
				c1.241-1.175,2.204-2.279,2.939-3.197c0.37-0.46,0.674-0.878,0.929-1.241c0.122-0.181,0.251-0.358,0.341-0.498
				c0.085-0.136,0.122-0.143,0.232-0.369c2.403-3.182,3.529-8.405,3.529-8.405s2.572,2.665,4.265,5.696s2.139,6.22,2.139,6.22
				s-1.002,1.758-1.48,2.383c-0.149,0.189-0.317,0.4-0.501,0.633c-0.182,0.224-0.368,0.432-0.576,0.675
				c-0.416,0.478-0.9,1.011-1.46,1.576c-1.12,1.133-2.523,2.427-4.231,3.737c-1.702,1.32-3.704,2.667-5.993,3.939
				c-0.289,0.154-0.58,0.311-0.874,0.469l-0.252,0.136l-0.204,0.104c-0.143,0.071-0.286,0.143-0.43,0.216
				c-0.163,0.081-0.328,0.162-0.493,0.243c-0.158,0.075-0.316,0.149-0.476,0.224c-0.319,0.148-0.641,0.297-0.97,0.438
				c-1.31,0.569-4.501,1.399-4.501,1.399s-6.428,1.737-10.788,1.084c-4.18-0.354-6.294-2.111-7.954-3.797
				c-0.863-0.876-2.726-3.938-2.47-6.773C0.28,21.048,1.104,20.664,1.104,20.664z"/>
			<path fill="#FFFFFF" d="M5.552,16.574"/>
			<path opacity="0.2" fill="#18214B" d="M42.196,19.583c-0.436,0.767-3.076,3.418-3.076,3.418
				c-0.923,0.874-1.493,1.535-2.727,2.482c-1.702,1.318-4.669,3.388-6.958,4.66c-0.289,0.154-0.58,0.311-0.874,0.469l-0.252,0.136
				l-0.204,0.104c-0.143,0.071-0.286,0.143-0.43,0.216c-0.163,0.081-0.328,0.162-0.493,0.243c-0.158,0.075-0.316,0.149-0.476,0.224
				c-0.319,0.148-0.641,0.297-0.97,0.438c-1.31,0.569-4.501,1.399-4.501,1.399s-6.428,1.737-10.788,1.084
				c-4.18-0.354-6.294-2.111-7.954-3.797c-0.863-0.876-2.726-3.938-2.47-6.773c0.256-2.837,1.08-3.221,1.08-3.221
				s-3.816,13.24,12.862,13.24c16.679,0,28.99-19.631,28.99-19.631s0.693,2.35,0.72,2.927"/>
		</g>
		<g id="ShipDockMoons">
			<circle fill="#18214B" cx="14.203" cy="11.323" r="3.569"/>
			<circle fill="#18214B" cx="20.985" cy="7.189" r="1.825"/>
			<polygon fill="#18214B" points="19.306,30.702 20.464,28.977 20.321,28.786 20.528,28.53 19.532,27.204 19.229,27.331 
				19.091,27.146 17.111,27.779 17.096,27.761 17.04,27.802 17.037,27.804 17.037,27.805 14.048,30.05 10.558,30.497 11.604,31.887 
				11.603,31.888 11.739,32.069 11.071,32.282 13.296,35.246 13.689,34.662 13.784,34.787 13.78,34.79 14.887,36.26 16.313,32.979 
				19.26,30.765 19.262,30.766 19.266,30.761 19.32,30.72 			"/>
			<path fill="#18214B" d="M37.631,21.939c1.741-4.285-0.321-9.172-4.605-10.912l-1.939-0.789c-4.285-1.739-9.17,0.321-10.912,4.606
				l2.743,1.114c0.085,0.758,0.311,1.489,0.649,2.165c-0.43,0.437-0.784,0.962-1.028,1.564l2.1,0.854l-1.287,3.165l1.536,0.625
				l-1.839,4.524l0.525,0.213l-3.613,8.892l0.647,0.262l3.612-8.891l0.728,0.296l-2.233,5.497l0.323,0.131l2.233-5.496l0.525,0.214
				l1.838-4.525l1.537,0.624l1.286-3.165l2.101,0.854c0.245-0.603,0.357-1.226,0.353-1.838c0.715-0.248,1.386-0.615,1.976-1.099
				L37.631,21.939z"/>
		</g>
		<g id="Sunlight">
			<path fill="#FFFFFF" d="M17.736,28.053l-2.944,2.234c-0.162,0.124-0.247,0.288-0.187,0.365c0.058,0.079,0.237,0.041,0.401-0.082
				l2.944-2.238c0.163-0.121,0.248-0.286,0.188-0.365C18.079,27.89,17.898,27.928,17.736,28.053z"/>
			<path fill="#FFFFFF" d="M24.197,18.321c-0.329-0.655-0.539-1.366-0.63-2.099l14.064,5.717l-14.064-5.717l0,0l-0.022-0.009
				l-2.83-1.15c1.338-3.29,4.423-5.325,7.685-5.422c-3.474-0.192-6.842,1.799-8.226,5.203l2.858,1.161l-0.103-0.042
				c0.087,0.754,0.3,1.486,0.638,2.16c-0.43,0.437-0.784,0.962-1.028,1.564l8.824,3.587c0.007-0.018,0,0,0.007-0.018l-8.201-3.372
				C23.413,19.283,23.767,18.758,24.197,18.321z"/>
			<path fill="#FFFFFF" d="M25.46,24.855c-0.09-0.035-0.221,0.078-0.288,0.251l-1.257,3.146c-0.068,0.175-0.052,0.345,0.04,0.381
				c0.09,0.036,0.219-0.074,0.29-0.249l1.254-3.146C25.568,25.065,25.552,24.893,25.46,24.855z"/>
			<path fill="#FFFFFF" d="M24.344,23.394l0.857-2.15c0.048-0.117,0.014-0.244-0.078-0.281c-0.09-0.036-0.203,0.032-0.249,0.15
				l-0.859,2.149c-0.046,0.119-0.012,0.244,0.08,0.28C24.185,23.579,24.296,23.513,24.344,23.394z"/>
			<path fill="#FFFFFF" d="M14.586,8.173c0.943,0,1.798,0.369,2.437,0.966c-0.653-0.841-1.671-1.385-2.819-1.385
				c-1.971,0-3.569,1.598-3.569,3.569c0,1.027,0.438,1.951,1.133,2.604c-0.469-0.604-0.75-1.36-0.75-2.184
				C11.017,9.771,12.614,8.173,14.586,8.173z"/>
			<path fill="#FFFFFF" d="M21.182,5.562c0.453,0,0.863,0.172,1.182,0.445c-0.334-0.39-0.825-0.643-1.379-0.643
				c-1.008,0-1.825,0.817-1.825,1.824c0,0.556,0.252,1.045,0.642,1.38c-0.273-0.319-0.445-0.729-0.445-1.183
				C19.357,6.378,20.174,5.562,21.182,5.562z"/>
		</g>
	</g>
	<g>
		<g opacity="0.75">
			<path fill="#18214B" d="M64.559,16.848c-0.361-0.459-0.833-0.824-1.416-1.096c-0.583-0.271-1.145-0.406-1.687-0.406
				c-0.279,0-0.562,0.025-0.85,0.074c-0.288,0.049-0.546,0.144-0.775,0.283c-0.23,0.14-0.423,0.32-0.579,0.542
				c-0.156,0.222-0.234,0.505-0.234,0.85c0,0.295,0.062,0.541,0.185,0.738c0.123,0.197,0.303,0.369,0.542,0.518
				c0.238,0.147,0.521,0.283,0.85,0.406c0.328,0.123,0.697,0.25,1.108,0.381c0.591,0.197,1.207,0.415,1.847,0.653
				c0.641,0.238,1.223,0.554,1.749,0.947c0.525,0.395,0.96,0.883,1.305,1.466s0.517,1.309,0.517,2.179
				c0,1.002-0.185,1.868-0.554,2.598c-0.369,0.731-0.866,1.334-1.49,1.811c-0.624,0.476-1.338,0.829-2.142,1.059
				c-0.805,0.229-1.634,0.345-2.487,0.345c-1.248,0-2.454-0.218-3.62-0.652c-1.166-0.436-2.134-1.055-2.906-1.859l2.758-2.808
				c0.426,0.526,0.989,0.965,1.687,1.317c0.698,0.354,1.391,0.53,2.081,0.53c0.312,0,0.616-0.033,0.911-0.099
				s0.554-0.173,0.776-0.32s0.397-0.345,0.529-0.591c0.131-0.246,0.197-0.542,0.197-0.887c0-0.328-0.082-0.607-0.246-0.837
				s-0.398-0.439-0.702-0.628c-0.304-0.188-0.682-0.361-1.133-0.518c-0.452-0.155-0.964-0.323-1.539-0.505
				c-0.558-0.18-1.104-0.394-1.637-0.64c-0.534-0.246-1.01-0.562-1.428-0.948c-0.419-0.386-0.755-0.854-1.01-1.403
				s-0.382-1.219-0.382-2.007c0-0.969,0.197-1.798,0.591-2.487s0.911-1.256,1.551-1.699s1.362-0.767,2.167-0.973
				c0.804-0.205,1.617-0.308,2.438-0.308c0.985,0,1.99,0.181,3.017,0.542c1.025,0.361,1.924,0.895,2.696,1.601L64.559,16.848z"/>
			<path fill="#18214B" d="M80.005,19.696c0,0.849-0.157,1.563-0.472,2.145c-0.314,0.581-0.738,1.05-1.272,1.405
				c-0.534,0.356-1.149,0.615-1.847,0.78c-0.698,0.164-1.423,0.246-2.175,0.246h-1.744v5.479h-3.509V15.223h5.335
				c0.793,0,1.536,0.079,2.227,0.236c0.69,0.157,1.292,0.41,1.806,0.759c0.513,0.35,0.917,0.808,1.21,1.375
				C79.858,18.161,80.005,18.862,80.005,19.696z M76.497,19.717c0-0.342-0.069-0.622-0.205-0.842
				c-0.137-0.218-0.322-0.39-0.554-0.513c-0.233-0.123-0.496-0.205-0.79-0.246c-0.294-0.041-0.599-0.062-0.913-0.062h-1.539v3.427
				h1.478c0.328,0,0.643-0.027,0.944-0.082c0.301-0.055,0.571-0.15,0.811-0.287c0.239-0.137,0.427-0.318,0.564-0.544
				C76.428,20.343,76.497,20.059,76.497,19.717z"/>
			<path fill="#18214B" d="M90.225,29.751l-1.129-2.853h-5.622l-1.067,2.853H78.59l6.094-14.528h3.406l6.033,14.528H90.225z
				 M86.326,19.102l-1.847,4.986h3.652L86.326,19.102z"/>
			<path fill="#18214B" d="M104.855,29.494c-0.944,0.432-2.031,0.646-3.263,0.646c-1.122,0-2.158-0.185-3.108-0.554
				c-0.951-0.369-1.775-0.893-2.473-1.57c-0.698-0.677-1.245-1.487-1.642-2.431c-0.397-0.944-0.595-1.983-0.595-3.119
				c0-1.163,0.202-2.217,0.605-3.16c0.403-0.944,0.961-1.748,1.672-2.411c0.711-0.663,1.545-1.173,2.503-1.529
				c0.957-0.355,1.99-0.533,3.098-0.533c1.026,0,2.035,0.182,3.027,0.544c0.992,0.362,1.795,0.893,2.411,1.59l-2.38,2.381
				c-0.328-0.452-0.759-0.787-1.292-1.006c-0.534-0.219-1.081-0.328-1.642-0.328c-0.616,0-1.18,0.113-1.693,0.339
				c-0.513,0.226-0.955,0.537-1.324,0.934s-0.657,0.865-0.862,1.405c-0.205,0.541-0.308,1.132-0.308,1.775
				c0,0.656,0.103,1.259,0.308,1.806s0.489,1.016,0.852,1.405c0.362,0.39,0.797,0.694,1.303,0.913
				c0.506,0.219,1.06,0.328,1.662,0.328c0.697,0,1.306-0.137,1.826-0.41c0.52-0.273,0.937-0.629,1.251-1.067l2.442,2.299
				C106.592,28.479,105.799,29.063,104.855,29.494z"/>
			<path fill="#18214B" d="M108.22,29.751V15.223h9.768v2.955h-6.382v2.75h6.033v2.811h-6.033v3.017h6.751v2.996H108.22z"/>
			<path fill="#18214B" d="M136.739,20.985c0,1.526-0.283,2.844-0.85,3.952c-0.566,1.107-1.313,2.019-2.241,2.732
				c-0.927,0.715-1.974,1.24-3.139,1.576c-1.166,0.337-2.348,0.505-3.546,0.505h-6.501V12.317h6.304
				c1.231,0,2.446,0.144,3.645,0.431c1.198,0.288,2.265,0.764,3.201,1.429c0.936,0.664,1.69,1.556,2.265,2.671
				C136.452,17.965,136.739,19.344,136.739,20.985z M132.356,20.985c0-0.985-0.16-1.802-0.48-2.45
				c-0.32-0.648-0.747-1.166-1.28-1.552c-0.534-0.386-1.141-0.66-1.822-0.825c-0.681-0.163-1.383-0.246-2.105-0.246h-2.093v10.194
				h1.995c0.755,0,1.481-0.086,2.179-0.259c0.697-0.172,1.313-0.455,1.847-0.849c0.533-0.395,0.96-0.92,1.28-1.576
				C132.196,22.767,132.356,21.954,132.356,20.985z"/>
			<path fill="#18214B" d="M153.75,22.426c0,1.148-0.199,2.199-0.595,3.149c-0.397,0.951-0.947,1.765-1.652,2.441
				c-0.705,0.678-1.542,1.201-2.514,1.57s-2.024,0.554-3.16,0.554c-1.135,0-2.185-0.185-3.149-0.554s-1.799-0.893-2.503-1.57
				c-0.705-0.677-1.255-1.49-1.652-2.441c-0.397-0.95-0.595-2.001-0.595-3.149c0-1.163,0.198-2.213,0.595-3.15
				c0.396-0.937,0.947-1.733,1.652-2.391c0.704-0.656,1.539-1.162,2.503-1.519c0.964-0.355,2.014-0.533,3.149-0.533
				c1.136,0,2.189,0.178,3.16,0.533c0.971,0.356,1.809,0.862,2.514,1.519c0.705,0.657,1.255,1.454,1.652,2.391
				C153.551,20.213,153.75,21.263,153.75,22.426z M149.994,22.426c0-0.63-0.103-1.218-0.308-1.765
				c-0.205-0.548-0.489-1.017-0.852-1.406c-0.363-0.39-0.8-0.697-1.313-0.923c-0.513-0.226-1.077-0.339-1.693-0.339
				c-0.615,0-1.176,0.113-1.683,0.339c-0.506,0.226-0.944,0.533-1.313,0.923c-0.37,0.39-0.653,0.858-0.852,1.406
				c-0.199,0.547-0.298,1.135-0.298,1.765c0,0.656,0.103,1.262,0.308,1.815c0.205,0.555,0.489,1.029,0.852,1.427
				c0.362,0.396,0.797,0.707,1.303,0.934c0.506,0.226,1.067,0.338,1.683,0.338c0.616,0,1.177-0.112,1.683-0.338
				c0.506-0.227,0.944-0.537,1.313-0.934c0.369-0.397,0.657-0.872,0.862-1.427C149.892,23.688,149.994,23.082,149.994,22.426z"/>
			<path fill="#18214B" d="M165.958,29.494c-0.944,0.432-2.031,0.646-3.263,0.646c-1.122,0-2.158-0.185-3.108-0.554
				c-0.951-0.369-1.775-0.893-2.473-1.57c-0.698-0.677-1.245-1.487-1.642-2.431c-0.397-0.944-0.595-1.983-0.595-3.119
				c0-1.163,0.202-2.217,0.605-3.16c0.403-0.944,0.961-1.748,1.672-2.411c0.711-0.663,1.545-1.173,2.503-1.529
				c0.957-0.355,1.99-0.533,3.098-0.533c1.026,0,2.035,0.182,3.027,0.544c0.992,0.362,1.795,0.893,2.411,1.59l-2.38,2.381
				c-0.328-0.452-0.759-0.787-1.292-1.006c-0.534-0.219-1.081-0.328-1.642-0.328c-0.616,0-1.18,0.113-1.693,0.339
				c-0.513,0.226-0.955,0.537-1.324,0.934s-0.657,0.865-0.862,1.405c-0.205,0.541-0.308,1.132-0.308,1.775
				c0,0.656,0.103,1.259,0.308,1.806s0.489,1.016,0.852,1.405c0.362,0.39,0.797,0.694,1.303,0.913
				c0.506,0.219,1.06,0.328,1.662,0.328c0.697,0,1.306-0.137,1.826-0.41c0.52-0.273,0.937-0.629,1.251-1.067l2.442,2.299
				C167.696,28.479,166.902,29.063,165.958,29.494z"/>
			<path fill="#18214B" d="M178.188,29.751l-5.396-6.689h-0.041v6.689h-3.427V15.223h3.427v5.91h0.062l5.191-5.91h4.392
				l-6.259,6.689l6.628,7.839H178.188z"/>
		</g>
		<g>
			<g>
				<path fill="#FFFFFF" d="M63.559,15.848c-0.361-0.459-0.833-0.824-1.416-1.096c-0.583-0.271-1.145-0.406-1.687-0.406
					c-0.279,0-0.562,0.025-0.85,0.074c-0.288,0.049-0.546,0.144-0.775,0.283c-0.23,0.14-0.423,0.32-0.579,0.542
					c-0.156,0.222-0.234,0.505-0.234,0.85c0,0.295,0.062,0.541,0.185,0.738c0.123,0.197,0.303,0.369,0.542,0.518
					c0.238,0.147,0.521,0.283,0.85,0.406c0.328,0.123,0.697,0.25,1.108,0.381c0.591,0.197,1.207,0.415,1.847,0.653
					c0.641,0.238,1.223,0.554,1.749,0.947c0.525,0.395,0.96,0.883,1.305,1.466s0.517,1.309,0.517,2.179
					c0,1.002-0.185,1.868-0.554,2.598c-0.369,0.731-0.866,1.334-1.49,1.811c-0.624,0.476-1.338,0.829-2.142,1.059
					c-0.805,0.229-1.634,0.345-2.487,0.345c-1.248,0-2.454-0.218-3.62-0.652c-1.166-0.436-2.134-1.055-2.906-1.859l2.758-2.808
					c0.426,0.526,0.989,0.965,1.687,1.317c0.698,0.354,1.391,0.53,2.081,0.53c0.312,0,0.616-0.033,0.911-0.099
					s0.554-0.173,0.776-0.32s0.397-0.345,0.529-0.591c0.131-0.246,0.197-0.542,0.197-0.887c0-0.328-0.082-0.607-0.246-0.837
					s-0.398-0.439-0.702-0.628c-0.304-0.188-0.682-0.361-1.133-0.518c-0.452-0.155-0.964-0.323-1.539-0.505
					c-0.558-0.18-1.104-0.394-1.637-0.64c-0.534-0.246-1.01-0.562-1.428-0.948c-0.419-0.386-0.755-0.854-1.01-1.403
					s-0.382-1.219-0.382-2.007c0-0.969,0.197-1.798,0.591-2.487s0.911-1.256,1.551-1.699s1.362-0.767,2.167-0.973
					c0.804-0.205,1.617-0.308,2.438-0.308c0.985,0,1.99,0.181,3.017,0.542c1.025,0.361,1.924,0.895,2.696,1.601L63.559,15.848z"/>
				<path fill="#FFFFFF" d="M79.005,18.696c0,0.849-0.157,1.563-0.472,2.145c-0.314,0.581-0.738,1.05-1.272,1.405
					c-0.534,0.356-1.149,0.615-1.847,0.78c-0.698,0.164-1.423,0.246-2.175,0.246h-1.744v5.479h-3.509V14.223h5.335
					c0.793,0,1.536,0.079,2.227,0.236c0.69,0.157,1.292,0.41,1.806,0.759c0.513,0.35,0.917,0.808,1.21,1.375
					C78.858,17.161,79.005,17.862,79.005,18.696z M75.497,18.717c0-0.342-0.069-0.622-0.205-0.842
					c-0.137-0.218-0.322-0.39-0.554-0.513c-0.233-0.123-0.496-0.205-0.79-0.246c-0.294-0.041-0.599-0.062-0.913-0.062h-1.539v3.427
					h1.478c0.328,0,0.643-0.027,0.944-0.082c0.301-0.055,0.571-0.15,0.811-0.287c0.239-0.137,0.427-0.318,0.564-0.544
					C75.428,19.343,75.497,19.059,75.497,18.717z"/>
				<path fill="#FFFFFF" d="M89.225,28.751l-1.129-2.853h-5.622l-1.067,2.853H77.59l6.094-14.528h3.406l6.033,14.528H89.225z
					 M85.326,18.102l-1.847,4.986h3.652L85.326,18.102z"/>
				<path fill="#FFFFFF" d="M103.855,28.494c-0.944,0.432-2.031,0.646-3.263,0.646c-1.122,0-2.158-0.185-3.108-0.554
					c-0.951-0.369-1.775-0.893-2.473-1.57c-0.698-0.677-1.245-1.487-1.642-2.431c-0.397-0.944-0.595-1.983-0.595-3.119
					c0-1.163,0.202-2.217,0.605-3.16c0.403-0.944,0.961-1.748,1.672-2.411c0.711-0.663,1.545-1.173,2.503-1.529
					c0.957-0.355,1.99-0.533,3.098-0.533c1.026,0,2.035,0.182,3.027,0.544c0.992,0.362,1.795,0.893,2.411,1.59l-2.38,2.381
					c-0.328-0.452-0.759-0.787-1.292-1.006c-0.534-0.219-1.081-0.328-1.642-0.328c-0.616,0-1.18,0.113-1.693,0.339
					c-0.513,0.226-0.955,0.537-1.324,0.934s-0.657,0.865-0.862,1.405c-0.205,0.541-0.308,1.132-0.308,1.775
					c0,0.656,0.103,1.259,0.308,1.806s0.489,1.016,0.852,1.405c0.362,0.39,0.797,0.694,1.303,0.913
					c0.506,0.219,1.06,0.328,1.662,0.328c0.697,0,1.306-0.137,1.826-0.41c0.52-0.273,0.937-0.629,1.251-1.067l2.442,2.299
					C105.592,27.479,104.799,28.063,103.855,28.494z"/>
				<path fill="#FFFFFF" d="M107.22,28.751V14.223h9.768v2.955h-6.382v2.75h6.033v2.811h-6.033v3.017h6.751v2.996H107.22z"/>
				<path fill="#FFFFFF" d="M135.739,19.985c0,1.526-0.283,2.844-0.85,3.952c-0.566,1.107-1.313,2.019-2.241,2.732
					c-0.927,0.715-1.974,1.24-3.139,1.576c-1.166,0.337-2.348,0.505-3.546,0.505h-6.501V11.317h6.304
					c1.231,0,2.446,0.144,3.645,0.431c1.198,0.288,2.265,0.764,3.201,1.429c0.936,0.664,1.69,1.556,2.265,2.671
					C135.452,16.965,135.739,18.344,135.739,19.985z M131.356,19.985c0-0.985-0.16-1.802-0.48-2.45
					c-0.32-0.648-0.747-1.166-1.28-1.552c-0.534-0.386-1.141-0.66-1.822-0.825c-0.681-0.163-1.383-0.246-2.105-0.246h-2.093v10.194
					h1.995c0.755,0,1.481-0.086,2.179-0.259c0.697-0.172,1.313-0.455,1.847-0.849c0.533-0.395,0.96-0.92,1.28-1.576
					C131.196,21.767,131.356,20.954,131.356,19.985z"/>
				<path fill="#FFFFFF" d="M152.75,21.426c0,1.148-0.199,2.199-0.595,3.149c-0.397,0.951-0.947,1.765-1.652,2.441
					c-0.705,0.678-1.542,1.201-2.514,1.57s-2.024,0.554-3.16,0.554c-1.135,0-2.185-0.185-3.149-0.554s-1.799-0.893-2.503-1.57
					c-0.705-0.677-1.255-1.49-1.652-2.441c-0.397-0.95-0.595-2.001-0.595-3.149c0-1.163,0.198-2.213,0.595-3.15
					c0.396-0.937,0.947-1.733,1.652-2.391c0.704-0.656,1.539-1.162,2.503-1.519c0.964-0.355,2.014-0.533,3.149-0.533
					c1.136,0,2.189,0.178,3.16,0.533c0.971,0.356,1.809,0.862,2.514,1.519c0.705,0.657,1.255,1.454,1.652,2.391
					C152.551,19.213,152.75,20.263,152.75,21.426z M148.994,21.426c0-0.63-0.103-1.218-0.308-1.765
					c-0.205-0.548-0.489-1.017-0.852-1.406c-0.363-0.39-0.8-0.697-1.313-0.923c-0.513-0.226-1.077-0.339-1.693-0.339
					c-0.615,0-1.176,0.113-1.683,0.339c-0.506,0.226-0.944,0.533-1.313,0.923c-0.37,0.39-0.653,0.858-0.852,1.406
					c-0.199,0.547-0.298,1.135-0.298,1.765c0,0.656,0.103,1.262,0.308,1.815c0.205,0.555,0.489,1.029,0.852,1.427
					c0.362,0.396,0.797,0.707,1.303,0.934c0.506,0.226,1.067,0.338,1.683,0.338c0.616,0,1.177-0.112,1.683-0.338
					c0.506-0.227,0.944-0.537,1.313-0.934c0.369-0.397,0.657-0.872,0.862-1.427C148.892,22.688,148.994,22.082,148.994,21.426z"/>
				<path fill="#FFFFFF" d="M164.958,28.494c-0.944,0.432-2.031,0.646-3.263,0.646c-1.122,0-2.158-0.185-3.108-0.554
					c-0.951-0.369-1.775-0.893-2.473-1.57c-0.698-0.677-1.245-1.487-1.642-2.431c-0.397-0.944-0.595-1.983-0.595-3.119
					c0-1.163,0.202-2.217,0.605-3.16c0.403-0.944,0.961-1.748,1.672-2.411c0.711-0.663,1.545-1.173,2.503-1.529
					c0.957-0.355,1.99-0.533,3.098-0.533c1.026,0,2.035,0.182,3.027,0.544c0.992,0.362,1.795,0.893,2.411,1.59l-2.38,2.381
					c-0.328-0.452-0.759-0.787-1.292-1.006c-0.534-0.219-1.081-0.328-1.642-0.328c-0.616,0-1.18,0.113-1.693,0.339
					c-0.513,0.226-0.955,0.537-1.324,0.934s-0.657,0.865-0.862,1.405c-0.205,0.541-0.308,1.132-0.308,1.775
					c0,0.656,0.103,1.259,0.308,1.806s0.489,1.016,0.852,1.405c0.362,0.39,0.797,0.694,1.303,0.913
					c0.506,0.219,1.06,0.328,1.662,0.328c0.697,0,1.306-0.137,1.826-0.41c0.52-0.273,0.937-0.629,1.251-1.067l2.442,2.299
					C166.696,27.479,165.902,28.063,164.958,28.494z"/>
				<path fill="#FFFFFF" d="M177.188,28.751l-5.396-6.689h-0.041v6.689h-3.427V14.223h3.427v5.91h0.062l5.191-5.91h4.392
					l-6.259,6.689l6.628,7.839H177.188z"/>
			</g>
		</g>
	</g>
</g>
</svg>
